<?xml version="1.0" encoding="utf-8"?>
<!-- Generator: Adobe Illustrator 15.0.0, SVG Export Plug-In . SVG Version: 6.00 Build 0)  -->
<!DOCTYPE svg PUBLIC "-//W3C//DTD SVG 1.1//EN" "http://www.w3.org/Graphics/SVG/1.1/DTD/svg11.dtd">
<svg version="1.1" id="Layer_1" xmlns="http://www.w3.org/2000/svg" xmlns:xlink="http://www.w3.org/1999/xlink" x="0px" y="0px"
	 width="595.276px" height="792px" viewBox="0 0 595.276 792" enable-background="new 0 0 595.276 792" xml:space="preserve">
<rect y="0.001" fill="#FFFFFF" width="595.441" height="792"/>
<rect x="-0.322" y="709.92" fill="#007DB8" width="595.608" height="82.08"/>
<g>
	<path fill="#FFFFFF" d="M548.596,764.083c3.337,0,5.961-1.67,6.437-5.245l-0.238-0.238h-0.951l-0.24,0.238
		c-0.477,2.621-2.146,4.052-5.007,4.052c-3.575,0-6.197-2.622-6.197-7.39c0-4.767,2.622-7.389,6.197-7.389
		c2.861,0,4.53,1.43,5.007,3.813l0.24,0.239h0.951l0.238-0.239c-0.476-3.336-3.1-5.005-6.437-5.005c-4.052,0-7.629,2.86-7.629,8.581
		C540.967,761.222,544.544,764.083,548.596,764.083 M538.107,763.603v-16.207l-0.236-0.238h-1.669l-0.238,0.238l-6.199,14.54h-0.237
		l-6.199-14.54l-0.237-0.238h-1.669l-0.238,0.238v16.207l0.238,0.24h0.955l0.236-0.24v-13.824h0.24l5.959,13.824l0.238,0.24h1.191
		l0.238-0.24l5.961-13.824h0.236v13.824l0.24,0.24h0.953L538.107,763.603z M518.085,763.603v-0.714l-0.24-0.237h-8.818l-0.24-0.239
		v-6.197l0.24-0.239h8.344l0.238-0.238v-0.713l-0.238-0.241h-8.344l-0.24-0.238v-5.958l0.24-0.239h8.818l0.24-0.237v-0.715
		l-0.24-0.238h-10.247l-0.241,0.238v16.207l0.241,0.24h10.247L518.085,763.603z"/>
	<path fill="#FFFFFF" d="M503.569,760.527v3.316h-10.767v-16.686h3.792v13.369H503.569z M492.802,747.158h3.792 M453.798,763.843
		c3.881,0,7.145-2.653,8.076-6.243l9.439,7.375l9.436-7.371v6.239h10.763v-3.316h-6.974v-13.369h-3.789v6.238l-9.051,7.07
		l-2.022-1.581l4.331-3.385l4.718-3.687l-2.694-2.104l-9.048,7.071l-2.025-1.581l9.05-7.071l-2.693-2.104l-9.439,7.376
		c-0.932-3.591-4.195-6.243-8.076-6.243h-6.766v16.686H453.798z M450.824,760.527v-10.053h2.975c2.513,0,4.552,2.25,4.552,5.026
		s-2.039,5.026-4.552,5.026H450.824z"/>
</g>
<g>
	<path fill="#FFFFFF" d="M142.896,746.511c1,0,1.8,0.8,1.8,1.699c0,1-0.8,1.7-1.8,1.7s-1.8-0.8-1.8-1.7
		C141.096,747.21,141.896,746.511,142.896,746.511L142.896,746.511z M142.896,746.811c-0.8,0-1.3,0.6-1.3,1.399
		c0,0.801,0.6,1.4,1.3,1.4c0.8,0,1.3-0.6,1.3-1.4C144.196,747.411,143.696,746.811,142.896,746.811L142.896,746.811z
		 M142.596,749.111h-0.4v-1.7c0.2,0,0.4-0.1,0.7-0.1s0.5,0.1,0.6,0.1c0.101,0.101,0.2,0.2,0.2,0.4s-0.1,0.3-0.399,0.399l0,0
		c0.199,0.101,0.3,0.2,0.3,0.4c0.1,0.3,0.1,0.4,0.1,0.4h-0.399c-0.101-0.101-0.101-0.2-0.101-0.4s-0.1-0.3-0.399-0.3h-0.2V749.111z
		 M142.596,748.111h0.2c0.199,0,0.399-0.1,0.399-0.3s-0.1-0.3-0.399-0.3c-0.101,0-0.2,0-0.2,0V748.111z"/>
	<path fill="#FFFFFF" d="M136.796,746.71c-0.2,0.2-0.5,0.5-0.7,0.9c-0.2,0.5-0.5,1.1-0.8,2l-3.7,10.6l-3.899-11.399
		c-0.2-0.8-0.5-1.3-0.9-1.8c-0.3-0.4-0.8-0.601-1.399-0.601c-0.4,0-0.7,0.101-1,0.3c-0.301,0.2-0.601,0.4-0.801,0.801
		c-0.199,0.3-0.3,0.699-0.3,1c0,0.399,0.2,0.899,0.5,1.699l5.5,13.9l0,0c-1,2.499-1.899,4.8-2,4.999l-0.3,1c0,0.3,0.1,0.7,0.2,1
		c0.2,0.3,0.399,0.601,0.7,0.8c0.3,0.2,0.699,0.301,0.999,0.301c0.5,0,0.9,0,1.2-0.2s0.601-0.5,0.8-1c0.301-0.5,0.601-1.2,1-2.1
		c0,0,6-15.8,6.101-15.9l0,0l1-2.699c0.1-0.4,0.3-0.8,0.399-1.2l0.2-0.9c0-0.3-0.1-0.6-0.2-0.899c-0.2-0.3-0.399-0.5-0.7-0.7
		c-0.3-0.2-0.6-0.3-0.899-0.3C137.396,746.511,136.997,746.611,136.796,746.71 M71.298,748.611l-0.1,0.1l-0.101-0.1
		c-1.3-1.3-3-2.1-4.8-2.1c-3.8,0-6.899,3.3-6.899,7.3v0.5v7.999c0,1.2,0.899,2.101,2,2.101c1.1,0,2-0.9,2-2.101v-8.8
		c0-1.699,1.3-3.1,2.899-3.1c1.601,0,2.9,1.4,2.9,3.1v8.8c0,1.2,0.899,2.101,2,2.101c1.1,0,2-0.9,2-2.101l0,0v-8.8
		c0-1.699,1.3-3.1,2.899-3.1s2.9,1.4,2.9,3.1v8.8c0,1.101,0.899,2,2,2c1.1,0,1.899-0.899,1.999-2v-0.1v-8.6c0-4-3.1-7.3-6.899-7.3
		C74.298,746.511,72.598,747.21,71.298,748.611 M89.198,755.411c0-3,2.4-5.3,5.3-5.3c3,0,5.3,2.399,5.3,5.3c0,3-2.399,5.3-5.3,5.3
		C91.598,760.71,89.198,758.411,89.198,755.411 M85.498,755.411c0,5,4.101,9.1,9.1,9.1c5,0,9.101-4.1,9.101-9.1
		s-4.101-9.1-9.101-9.1C89.598,746.311,85.498,750.411,85.498,755.411 M105.998,746.311c-0.7,0-1.3,0.2-1.7,0.5s-0.5,0.7-0.5,1.3
		c0,0.5,0.2,1,0.6,1.3c0.4,0.3,0.9,0.5,1.7,0.5h9c0,0-9.6,10.7-9.9,11.1c-0.3,0.4-0.499,0.8-0.499,1.2c0,0.7,0.199,1.2,0.6,1.6
		c0.399,0.4,1.1,0.601,2,0.601h12.499c0.7,0,1.301-0.2,1.7-0.5c0.4-0.301,0.5-0.7,0.5-1.301c0-0.5-0.2-1-0.6-1.3
		c-0.4-0.3-0.9-0.5-1.7-0.5h-9c0,0,9.6-10.699,9.9-11.1c0.3-0.399,0.5-0.8,0.5-1.199c0-0.7-0.2-1.2-0.601-1.601
		c-0.399-0.399-1.1-0.6-2-0.6H105.998z"/>
	<path fill="#FFFFFF" d="M39.2,747.911c-1.101,0-2,0.9-2,2v3.9c0,1.1,0.899,2,2,2h3.899c1.101,0,2-0.9,2-2v-3.9c0-1.1-0.899-2-2-2
		H39.2z"/>
	<path fill="#FFFFFF" d="M48.199,756.911c-1.1,0-2,0.899-2,2v3.899c0,1.101,0.9,2,2,2h3.9c1.1,0,2-0.899,2-2v-3.899
		c0-1.101-0.9-2-2-2H48.199z"/>
	<path fill="#FFFFFF" d="M48.199,747.911c-1.1,0-2,0.9-2,2v4.3c0,1.4-1.199,2.6-2.6,2.6h-1.8l0,0h-2.6c-1.101,0-2,0.9-2,2v3.9
		c0,1.1,0.899,2,2,2h3.899c1.101,0,2-0.9,2-2v-4.3c0-1.4,1.2-2.6,2.6-2.6H52c1.1,0,1.999-0.9,1.999-2v-3.9c0-1.1-0.899-2-1.999-2
		H48.199z"/>
	<path fill="#FFFFFF" d="M142.896,746.511c1,0,1.8,0.8,1.8,1.699c0,1-0.8,1.7-1.8,1.7s-1.8-0.8-1.8-1.7
		C141.096,747.21,141.896,746.511,142.896,746.511L142.896,746.511z M142.896,746.811c-0.8,0-1.3,0.6-1.3,1.399
		c0,0.801,0.6,1.4,1.3,1.4c0.8,0,1.3-0.6,1.3-1.4C144.196,747.411,143.696,746.811,142.896,746.811L142.896,746.811z
		 M142.596,749.111h-0.4v-1.7c0.2,0,0.4-0.1,0.7-0.1s0.5,0.1,0.6,0.1c0.101,0.101,0.2,0.2,0.2,0.4s-0.1,0.3-0.399,0.399l0,0
		c0.199,0.101,0.3,0.2,0.3,0.4c0.1,0.3,0.1,0.4,0.1,0.4h-0.399c-0.101-0.101-0.101-0.2-0.101-0.4s-0.1-0.3-0.399-0.3h-0.2V749.111z
		 M142.596,748.111h0.2c0.199,0,0.399-0.1,0.399-0.3s-0.1-0.3-0.399-0.3c-0.101,0-0.2,0-0.2,0V748.111z"/>
	<path fill="#FFFFFF" d="M136.796,746.71c-0.2,0.2-0.5,0.5-0.7,0.9c-0.2,0.5-0.5,1.1-0.8,2l-3.7,10.6l-3.899-11.399
		c-0.2-0.8-0.5-1.3-0.9-1.8c-0.3-0.4-0.8-0.601-1.399-0.601c-0.4,0-0.7,0.101-1,0.3c-0.301,0.2-0.601,0.4-0.801,0.801
		c-0.199,0.3-0.3,0.699-0.3,1c0,0.399,0.2,0.899,0.5,1.699l5.5,13.9l0,0c-1,2.499-1.899,4.8-2,4.999l-0.3,1c0,0.3,0.1,0.7,0.2,1
		c0.2,0.3,0.399,0.601,0.7,0.8c0.3,0.2,0.699,0.301,0.999,0.301c0.5,0,0.9,0,1.2-0.2s0.601-0.5,0.8-1c0.301-0.5,0.601-1.2,1-2.1
		c0,0,6-15.8,6.101-15.9l0,0l1-2.699c0.1-0.4,0.3-0.8,0.399-1.2l0.2-0.9c0-0.3-0.1-0.6-0.2-0.899c-0.2-0.3-0.399-0.5-0.7-0.7
		c-0.3-0.2-0.6-0.3-0.899-0.3C137.396,746.511,136.997,746.611,136.796,746.71 M71.298,748.611l-0.1,0.1l-0.101-0.1
		c-1.3-1.3-3-2.1-4.8-2.1c-3.8,0-6.899,3.3-6.899,7.3v0.5v7.999c0,1.2,0.899,2.101,2,2.101c1.1,0,2-0.9,2-2.101v-8.8
		c0-1.699,1.3-3.1,2.899-3.1c1.601,0,2.9,1.4,2.9,3.1v8.8c0,1.2,0.899,2.101,2,2.101c1.1,0,2-0.9,2-2.101l0,0v-8.8
		c0-1.699,1.3-3.1,2.899-3.1s2.9,1.4,2.9,3.1v8.8c0,1.101,0.899,2,2,2c1.1,0,1.899-0.899,1.999-2v-0.1v-8.6c0-4-3.1-7.3-6.899-7.3
		C74.298,746.511,72.598,747.21,71.298,748.611 M89.198,755.411c0-3,2.4-5.3,5.3-5.3c3,0,5.3,2.399,5.3,5.3c0,3-2.399,5.3-5.3,5.3
		C91.598,760.71,89.198,758.411,89.198,755.411 M85.498,755.411c0,5,4.101,9.1,9.1,9.1c5,0,9.101-4.1,9.101-9.1
		s-4.101-9.1-9.101-9.1C89.598,746.311,85.498,750.411,85.498,755.411 M105.998,746.311c-0.7,0-1.3,0.2-1.7,0.5s-0.5,0.7-0.5,1.3
		c0,0.5,0.2,1,0.6,1.3c0.4,0.3,0.9,0.5,1.7,0.5h9c0,0-9.6,10.7-9.9,11.1c-0.3,0.4-0.499,0.8-0.499,1.2c0,0.7,0.199,1.2,0.6,1.6
		c0.399,0.4,1.1,0.601,2,0.601h12.499c0.7,0,1.301-0.2,1.7-0.5c0.4-0.301,0.5-0.7,0.5-1.301c0-0.5-0.2-1-0.6-1.3
		c-0.4-0.3-0.9-0.5-1.7-0.5h-9c0,0,9.6-10.699,9.9-11.1c0.3-0.399,0.5-0.8,0.5-1.199c0-0.7-0.2-1.2-0.601-1.601
		c-0.399-0.399-1.1-0.6-2-0.6H105.998z"/>
	<path fill="#FFFFFF" d="M39.2,747.911c-1.101,0-2,0.9-2,2v3.9c0,1.1,0.899,2,2,2h3.899c1.101,0,2-0.9,2-2v-3.9c0-1.1-0.899-2-2-2
		H39.2z"/>
	<path fill="#FFFFFF" d="M48.199,756.911c-1.1,0-2,0.899-2,2v3.899c0,1.101,0.9,2,2,2h3.9c1.1,0,2-0.899,2-2v-3.899
		c0-1.101-0.9-2-2-2H48.199z"/>
	<path fill="#FFFFFF" d="M48.199,747.911c-1.1,0-2,0.9-2,2v4.3c0,1.4-1.199,2.6-2.6,2.6h-1.8l0,0h-2.6c-1.101,0-2,0.9-2,2v3.9
		c0,1.1,0.899,2,2,2h3.899c1.101,0,2-0.9,2-2v-4.3c0-1.4,1.2-2.6,2.6-2.6H52c1.1,0,1.999-0.9,1.999-2v-3.9c0-1.1-0.899-2-1.999-2
		H48.199z"/>
	<g>
		<path fill="#FFFFFF" d="M94.498,772.11v-4.8h1.6c0.601,0,1,0.101,1.301,0.3c0.3,0.2,0.5,0.5,0.5,1c0,0.2-0.101,0.4-0.2,0.601
			c-0.101,0.199-0.3,0.3-0.5,0.399c0.3,0.101,0.5,0.2,0.7,0.4c0.199,0.2,0.199,0.399,0.199,0.7c0,0.5-0.199,0.8-0.5,1
			c-0.3,0.199-0.699,0.399-1.3,0.399H94.498L94.498,772.11z M95.398,769.41h0.6c0.3,0,0.5-0.1,0.6-0.199
			c0.101-0.101,0.2-0.301,0.2-0.5c0-0.2-0.1-0.4-0.2-0.5c-0.1-0.101-0.3-0.2-0.6-0.2h-0.6V769.41z M95.398,770.01v1.399h0.899
			c0.3,0,0.4-0.1,0.601-0.199c0.1-0.101,0.199-0.301,0.199-0.5c0-0.2-0.1-0.4-0.199-0.5c-0.101-0.101-0.301-0.2-0.601-0.2H95.398z"
			/>
		<path fill="#FFFFFF" d="M100.998,769.61L100.998,769.61l1.1-2.199h1l-1.6,3.1v1.7h-1v-1.7l-1.6-3h0.999L100.998,769.61z"/>
		<path fill="#FFFFFF" d="M106.498,772.11v-4.8h1.699c0.601,0,1.101,0.2,1.4,0.601c0.4,0.399,0.6,0.8,0.6,1.399v0.8
			c0,0.601-0.199,1.101-0.6,1.4c-0.4,0.399-0.9,0.6-1.4,0.6H106.498z M107.498,768.11v3.3h0.699c0.301,0,0.601-0.1,0.801-0.399
			c0.199-0.2,0.3-0.5,0.3-0.9v-0.8c0-0.4-0.101-0.7-0.3-0.9c-0.2-0.199-0.4-0.3-0.801-0.3H107.498z"/>
		<path fill="#FFFFFF" d="M114.397,770.01h-1.8v1.399h2.1v0.7h-3.1v-4.8h3v0.7h-2v1.2h1.8V770.01z"/>
		<path fill="#FFFFFF" d="M117.097,771.41h2.1v0.7h-3.1v-4.8h1V771.41z"/>
		<path fill="#FFFFFF" d="M121.497,771.41h2.1v0.7h-2.999v-4.8h1v4.1H121.497z"/>
	</g>
</g>
</svg>
