<?xml version="1.0" encoding="utf-8"?>
<!-- Generator: Adobe Illustrator 15.0.0, SVG Export Plug-In . SVG Version: 6.00 Build 0)  -->
<!DOCTYPE svg PUBLIC "-//W3C//DTD SVG 1.1//EN" "http://www.w3.org/Graphics/SVG/1.1/DTD/svg11.dtd">
<svg version="1.1" id="Layer_1" xmlns="http://www.w3.org/2000/svg" xmlns:xlink="http://www.w3.org/1999/xlink" x="0px" y="0px"
	 width="595.276px" height="792px" viewBox="0 0 595.276 792" enable-background="new 0 0 595.276 792" xml:space="preserve">
<rect y="0.001" fill="#FFFFFF" width="595.441" height="792"/>
<rect x="-0.322" y="709.92" fill="#007DB8" width="595.608" height="82.08"/>
<g>
	<g>
		<g>
			<path fill="#FFFFFF" d="M496.455,748.127l13.231,0.042v3.915c0.043,0.255-0.289,0.211-0.34-0.043
				c-0.128-0.638-1.232-2.169-1.446-2.298h-5.531v4.766h4.637c0.341-0.128,0.883-1.062,1.235-2c0.126-0.34,0.387-0.127,0.382-0.041
				c-0.085,1.531-0.063,4.336-0.043,5.487c0.01,0.429-0.213,0.554-0.339,0.17c-0.127-0.383-0.767-1.701-1.192-2.042h-4.68v5.446
				h5.998c0.341-0.255,1.219-2.178,1.319-2.68c0.043-0.214,0.384-0.214,0.384-0.043v4.509l-9.403-0.126c-1.914,0-2.382,0-4.212,0.17
				c-0.3,0.027-0.293-0.414-0.085-0.511c2.084-0.979,2.341-0.426,2.341-3.404v-8.126c0-2.212-0.636-2.126-2.341-2.767
				C496.191,748.487,496.285,748.169,496.455,748.127z"/>
			<path fill="#FFFFFF" d="M512.92,748.042l6.169,0.128l4.724,9.701l4.894-9.573c0,0,3.827,0,4.168,0s1.661-0.128,1.871-0.17
				c0.214-0.042,0.257,0.384,0.086,0.468c-0.17,0.085-2.212,0.938-2.424,1.234l1.232,11.828c0.17,0.382,2.249,1.261,2.596,1.319
				c0.254,0.042,0.178,0.349,0.042,0.339c-1.318-0.085-7.269-0.085-8.552,0c-0.128,0.009-0.665-0.2-0.084-0.383
				c0.68-0.212,2.041-0.681,2.339-1.191l-0.852-10.295l-5.87,11.869h-0.979l-5.36-11.614l-0.936,9.956
				c0.382,0.766,2.17,1.106,2.383,1.191c0.212,0.084,0.212,0.399,0.042,0.382c-1.277-0.127-6.043-0.041-6.552,0.043
				c-0.255,0.042-0.719-0.28-0.128-0.469c1.666-0.526,2.213-0.041,2.595-3.914l1.021-8.509c0.127-1.403-1.656-1.573-2.468-1.871
				C512.757,748.465,512.623,748.042,512.92,748.042z"/>
			<path fill="#FFFFFF" d="M548.502,751.957l0.127-3.915c-1.745-0.211-6.051-0.92-9.616,1.702
				c-3.697,2.721-4.708,9.676,0.086,12.807c3.19,2.086,9.02,0.64,9.444,0.427c0.17-0.085,0.385-0.213,0.385-0.383
				c0-0.171,0.041-3.659,0.041-3.831c0-0.169-0.256-0.127-0.384,0.044c-0.127,0.17-0.78,2.663-1.403,2.978
				c-1.373,0.693-4.634,1.132-6.339-2.34c-1.122-2.286-1.156-5.383,0.468-8.212c1.687-2.939,4.851-2.097,5.233-1.87
				c0.724,0.424,1.166,1.367,1.49,2.552C548.161,752.382,548.458,752.297,548.502,751.957z"/>
			<path fill="#FFFFFF" d="M549.694,746.043c1.785-1.661,3.361-1.064,3.913-0.512c0.553,0.553,0.917,1.765-0.383,3.063
				c-0.639,0.639-1.956,1.66-1.956,1.66s2.083,0,2.041,0c0.213-0.044,0.587-0.774,0.724-0.979c0.086-0.128,0.17-0.086,0.17,0.086
				c0,0.17,0,2.169,0,2.169c-0.596-0.043-4.125-0.043-4.68-0.043v-0.724c0.936-0.724,1.829-1.744,2.511-2.596
				c0.68-0.851,0.569-3.119-1.83-1.786C549.821,746.595,549.565,746.383,549.694,746.043z"/>
		</g>
	</g>
	<path fill="#FFFFFF" d="M551.211,759.977c0.648,0,1.166,0.526,1.166,1.187c0,0.67-0.518,1.192-1.171,1.192
		c-0.649,0-1.178-0.522-1.178-1.192c0-0.66,0.528-1.187,1.178-1.187H551.211z M551.207,760.162c-0.522,0-0.95,0.448-0.95,1.002
		c0,0.564,0.428,1.008,0.955,1.008c0.527,0.005,0.949-0.443,0.949-1.002c0-0.56-0.422-1.008-0.949-1.008H551.207z M550.984,761.855
		h-0.21v-1.325c0.11-0.016,0.215-0.031,0.374-0.031c0.199,0,0.332,0.043,0.411,0.101c0.079,0.059,0.122,0.147,0.122,0.274
		c0,0.173-0.116,0.279-0.259,0.321v0.011c0.116,0.021,0.194,0.128,0.222,0.321c0.03,0.206,0.063,0.285,0.084,0.328h-0.221
		c-0.033-0.043-0.064-0.164-0.091-0.339c-0.031-0.168-0.116-0.23-0.284-0.23h-0.148V761.855z M550.984,761.122h0.154
		c0.172,0,0.32-0.063,0.32-0.227c0-0.116-0.084-0.232-0.32-0.232c-0.07,0-0.116,0.005-0.154,0.012V761.122z"/>
	<path fill="#FFFFFF" d="M551.211,759.977c0.648,0,1.166,0.526,1.166,1.187c0,0.67-0.518,1.192-1.171,1.192
		c-0.649,0-1.178-0.522-1.178-1.192c0-0.66,0.528-1.187,1.178-1.187H551.211z M551.207,760.162c-0.522,0-0.95,0.448-0.95,1.002
		c0,0.564,0.428,1.008,0.955,1.008c0.527,0.005,0.949-0.443,0.949-1.002c0-0.56-0.422-1.008-0.949-1.008H551.207z M550.984,761.855
		h-0.21v-1.325c0.11-0.016,0.215-0.031,0.374-0.031c0.199,0,0.332,0.043,0.411,0.101c0.079,0.059,0.122,0.147,0.122,0.274
		c0,0.173-0.116,0.279-0.259,0.321v0.011c0.116,0.021,0.194,0.128,0.222,0.321c0.03,0.206,0.063,0.285,0.084,0.328h-0.221
		c-0.033-0.043-0.064-0.164-0.091-0.339c-0.031-0.168-0.116-0.23-0.284-0.23h-0.148V761.855z M550.984,761.122h0.154
		c0.172,0,0.32-0.063,0.32-0.227c0-0.116-0.084-0.232-0.32-0.232c-0.07,0-0.116,0.005-0.154,0.012V761.122z"/>
</g>
</svg>
