<svg xmlns="http://www.w3.org/2000/svg" viewBox="0 0 191.02 24.48"><defs><style>.a{fill:#fff;}</style></defs><title>DellTech_Logo_Prm_Wht_rgb</title><path class="a" d="M603,69.59c0-2.3-1.28-3.33-3.84-3.84s-4.09-.77-4.09-2.55c0-1.28,1-2.05,2.81-2.05,2.31,0,3.07,1,3.07,2.3l.26.26h1l.26-.26c0-2.56-2-3.58-4.61-3.58-2.81,0-4.34,1.54-4.34,3.33,0,2,1.53,3.06,4.09,3.57s3.83.77,3.83,2.82c0,1.28-.76,2.3-3.32,2.3-2.3,0-3.32-1.28-3.32-2.81l-.26-.26h-1l-.26.26c0,2.3,1.79,4.09,4.86,4.09,3.32,0,4.86-1.54,4.86-3.58M592,67l.26-.26V66c0-3.58-2-6.14-5.63-6.14S581,62.43,581,66v.51c0,3.58,1.79,6.65,5.88,6.65,3.58,0,4.86-2.3,5.11-3.84l-.25-.25h-1l-.26.25a3.4,3.4,0,0,1-3.58,2.56c-3.32,0-4.35-3.07-4.35-4.6l.26-.26Zm-1.53-1.28h-7.67l-.26-.25a4.1,4.1,0,1,1,8.19,0Zm-11.25,6.91V60.38l-.26-.25h-1l-.25.25V72.66l.25.25h1Zm0-14.83V56.29L579,56h-1l-.25.25v1.54l.25.25h1Zm-9.71,14.06c-2.56,0-4.1-1.79-4.1-5.37s1.54-5.37,4.1-5.37,4.09,1.79,4.09,5.37-1.54,5.37-4.09,5.37m4.09-.77c0,3.32-.77,5.88-3.84,5.88-2.3,0-3.07-1-3.32-2.3l-.26-.26h-1l-.26.26c.26,2,1.79,3.58,4.86,3.58,3.32,0,5.37-2,5.37-7.16V60.38l-.26-.25h-.76l-.26.25-.25,1.54h-.26c-.51-1-1.79-2.05-4.09-2.05-3.58,0-5.37,2.81-5.37,6.65s1.79,6.65,5.37,6.65c2.3,0,3.58-1,4.09-2ZM557,61.15c2.55,0,4.34,2.05,4.34,5.37s-1.79,5.37-4.34,5.37-4.35-2-4.35-5.37,1.79-5.37,4.35-5.37m0,12c3.32,0,5.88-2.3,5.88-6.65s-2.56-6.65-5.88-6.65-5.88,2.3-5.88,6.65,2.55,6.65,5.88,6.65m-7.67-.51V55.27l-.26-.26h-1l-.26.26V72.66l.26.25h1Zm-9.21-11.51c2.56,0,4.35,2.05,4.35,5.37s-1.79,5.37-4.35,5.37-4.34-2-4.34-5.37,1.79-5.37,4.34-5.37m0,12c3.33,0,5.88-2.3,5.88-6.65s-2.55-6.65-5.88-6.65-5.88,2.3-5.88,6.65,2.56,6.65,5.88,6.65m-7.41-.51V65c0-3.32-1.79-5.11-4.6-5.11A4.63,4.63,0,0,0,524,61.92h-.26l-.25-1.54-.26-.25h-.77l-.25.25V72.66l.25.25h1l.25-.25V65.75c0-2.81,1.28-4.6,4.09-4.6,2,0,3.32,1.28,3.32,3.83v7.68l.26.25h1Zm-13,0V65c0-3.32-1.79-5.11-4.6-5.11A4.63,4.63,0,0,0,511,61.92h-.26V55.27l-.25-.26h-1l-.25.26V72.66l.25.25h1l.25-.25V65.75c0-2.81,1.28-4.6,4.09-4.6,2.05,0,3.33,1.28,3.33,3.83v7.68l.25.25h1Zm-22-6.14c0-3.58,1.79-5.37,4.35-5.37a3.5,3.5,0,0,1,3.83,3.07l.26.25h1l.26-.25c-.26-2.56-2.3-4.35-5.37-4.35-3.33,0-5.88,2.05-5.88,6.65s2.55,6.65,5.88,6.65c3.07,0,5.11-1.79,5.37-4.35l-.26-.26h-1l-.26.26A3.51,3.51,0,0,1,502,71.89c-2.56,0-4.35-1.79-4.35-5.37m-2.81.51.26-.26V66c0-3.58-2.05-6.14-5.63-6.14s-5.63,2.56-5.63,6.14v.51c0,3.58,1.79,6.65,5.89,6.65,3.57,0,4.85-2.3,5.11-3.84l-.26-.25h-1l-.26.25a3.4,3.4,0,0,1-3.57,2.56c-3.33,0-4.35-3.07-4.35-4.6l.25-.26Zm-1.54-1.28h-7.67l-.25-.25c0-1.79,1-4.35,4.09-4.35s4.09,2.56,4.09,4.35ZM486.44,56v-.77l-.26-.26h-13.3l-.25.26V56l.25.25h5.63l.25.26V72.66l.26.25h1l.26-.25V56.55l.25-.26h5.63Z" transform="translate(-411.99 -53.8)"/><path class="a" d="M472.63,69.35v3.56H461.08V55h4.07V69.35Zm-53.38,3.56a9,9,0,0,0,8.66-6.7L438,74.12l10.12-7.9v6.69H459.7V69.35h-7.48V55h-4.07v6.7l-9.7,7.58-2.17-1.7L440.92,64,446,60l-2.89-2.26-9.7,7.59-2.17-1.7,9.7-7.58L438,53.8l-10.12,7.91a9,9,0,0,0-8.66-6.7H412v17.9Zm-3.19-3.56V58.57h3.19a5.42,5.42,0,0,1,0,10.78Z" transform="translate(-411.99 -53.8)"/></svg>