<?xml version="1.0" encoding="utf-8"?>
<!-- Generator: Adobe Illustrator 17.1.0, SVG Export Plug-In . SVG Version: 6.00 Build 0)  -->
<!DOCTYPE svg PUBLIC "-//W3C//DTD SVG 1.1//EN" "http://www.w3.org/Graphics/SVG/1.1/DTD/svg11.dtd">
<svg version="1.1" xmlns="http://www.w3.org/2000/svg" xmlns:xlink="http://www.w3.org/1999/xlink" x="0px" y="0px"
	 viewBox="0 0 24 24" enable-background="new 0 0 24 24" xml:space="preserve">
<g id="Layer_2">
	<path fill="white"
		  d="M21,12c0,4.9-3.9,8.9-8.7,8.9h-0.5c-4.8,0-8.7-4-8.7-8.9l0,0C3,7,6.9,3.1,11.7,3.1h0.5C17.1,3.1,21,7,21,12
		L21,12z"/>
</g>
<g id="Layer_1">
	<path fill="#ff3000"
		  d="M19,6.4L17.6,5L12,10.6L6.4,5L5,6.4l5.6,5.6L5,17.6L6.4,19l5.6-5.6l5.6,5.6l1.4-1.4L13.4,12L19,6.4z"/>
</g>
</svg>
