<?xml version="1.0" encoding="utf-8"?>
<!-- Generator: Adobe Illustrator 17.1.0, SVG Export Plug-In . SVG Version: 6.00 Build 0)  -->
<!DOCTYPE svg PUBLIC "-//W3C//DTD SVG 1.1//EN" "http://www.w3.org/Graphics/SVG/1.1/DTD/svg11.dtd">
<svg version="1.1" id="Layer_1" xmlns="http://www.w3.org/2000/svg" xmlns:xlink="http://www.w3.org/1999/xlink" x="0px" y="0px"
	 viewBox="0 0 24 24" enable-background="new 0 0 24 24" xml:space="preserve">
<path fill="#2C95DD"
	  d="M16.4,14c0.1-0.7,0.1-1.3,0.1-2s-0.1-1.3-0.1-2h3.4c0.2,0.6,0.3,1.3,0.3,2s-0.1,1.4-0.3,2 M14.6,19.6
	c0.6-1.1,1.1-2.3,1.4-3.6h2.9C18,17.6,16.4,18.9,14.6,19.6 M14.3,14H9.7c-0.1-0.7-0.2-1.3-0.2-2s0.1-1.4,0.2-2h4.7
	c0.1,0.6,0.2,1.3,0.2,2S14.4,13.3,14.3,14 M12,20c-0.8-1.2-1.5-2.5-1.9-4h3.8C13.5,17.4,12.8,18.8,12,20 M8,8H5.1
	c1-1.7,2.5-2.9,4.3-3.6C8.8,5.6,8.4,6.8,8,8 M5.1,16H8c0.4,1.3,0.8,2.5,1.4,3.6C7.6,18.9,6,17.6,5.1,16 M4.3,14
	C4.1,13.4,4,12.7,4,12s0.1-1.4,0.3-2h3.4c-0.1,0.7-0.1,1.3-0.1,2s0.1,1.3,0.1,2 M12,4c0.8,1.2,1.5,2.5,1.9,4h-3.8
	C10.5,6.6,11.2,5.2,12,4 M18.9,8H16c-0.3-1.3-0.8-2.4-1.4-3.6C16.4,5.1,18,6.3,18.9,8 M12,2C6.5,2,2,6.5,2,12c0,5.5,4.5,10,10,10
	s10-4.5,10-10S17.5,2,12,2z"/>
</svg>
