<?xml version="1.0" encoding="UTF-8"?>
<!DOCTYPE svg PUBLIC "-//W3C//DTD SVG 1.1//EN" "http://www.w3.org/Graphics/SVG/1.1/DTD/svg11.dtd">
<!-- Creator: CorelDRAW X5 -->
<svg xmlns="http://www.w3.org/2000/svg" xml:space="preserve" width="0.974445in" height="0.974445in" style="shape-rendering:geometricPrecision; text-rendering:geometricPrecision; image-rendering:optimizeQuality; fill-rule:evenodd; clip-rule:evenodd"
viewBox="0 0 974 974"
 xmlns:xlink="http://www.w3.org/1999/xlink">
 <defs>
  <style type="text/css">
   <![CDATA[
    .fil0 {fill:gray;fill-rule:nonzero}
   ]]>
  </style>
 </defs>
 <g id="Dell_Logo_Gry_rgb">
  <metadata id="CorelCorpID_0Corel-Layer"/>
  <path class="fil0" d="M189 552l0 -129 38 0c32,0 59,29 59,65 0,36 -26,65 -59,65l-38 0zm38 43c50,0 92,-34 104,-80l121 95 121 -95 0 80 138 0 0 -43 -90 0 0 -172 -49 0 0 80 -116 91 -26 -20 56 -44 61 -47 -35 -27 -116 91 -26 -20 116 -91 -35 -27 -121 95c-12,-46 -54,-80 -104,-80l-87 0 0 215 87 0zm640 -43l0 43 -138 0 0 -215 49 0 0 172 90 0zm-380 374c-242,0 -439,-196 -439,-439 0,-242 196,-439 439,-439 242,0 439,196 439,439 0,242 -196,439 -439,439zm0 -926c-269,0 -487,218 -487,487 0,269 218,487 487,487 269,0 487,-218 487,-487 0,-269 -218,-487 -487,-487z"/>
 </g>
</svg>
