<?xml version="1.0" encoding="utf-8"?>
<!-- Generator: Adobe Illustrator 15.0.0, SVG Export Plug-In . SVG Version: 6.00 Build 0)  -->
<!DOCTYPE svg PUBLIC "-//W3C//DTD SVG 1.1//EN" "http://www.w3.org/Graphics/SVG/1.1/DTD/svg11.dtd">
<svg version="1.1" id="Layer_1" xmlns="http://www.w3.org/2000/svg" xmlns:xlink="http://www.w3.org/1999/xlink" x="0px" y="0px"
	 width="595.276px" height="792px" viewBox="0 0 595.276 792" enable-background="new 0 0 595.276 792" xml:space="preserve">
<rect y="0.001" fill="#FFFFFF" width="595.441" height="792"/>
<rect x="-0.322" y="709.92" fill="#007DB8" width="595.608" height="82.08"/>
<g>
	<path fill="#FFFFFF" d="M548.596,764.083c3.337,0,5.961-1.67,6.437-5.245l-0.238-0.238h-0.951l-0.24,0.238
		c-0.477,2.621-2.146,4.052-5.007,4.052c-3.575,0-6.197-2.622-6.197-7.39c0-4.767,2.622-7.389,6.197-7.389
		c2.861,0,4.53,1.43,5.007,3.813l0.24,0.239h0.951l0.238-0.239c-0.476-3.336-3.1-5.005-6.437-5.005c-4.052,0-7.629,2.86-7.629,8.581
		C540.967,761.222,544.544,764.083,548.596,764.083 M538.107,763.603v-16.207l-0.236-0.238h-1.669l-0.238,0.238l-6.199,14.54h-0.237
		l-6.199-14.54l-0.237-0.238h-1.669l-0.238,0.238v16.207l0.238,0.24h0.955l0.236-0.24v-13.824h0.24l5.959,13.824l0.238,0.24h1.191
		l0.238-0.24l5.961-13.824h0.236v13.824l0.24,0.24h0.953L538.107,763.603z M518.085,763.603v-0.714l-0.24-0.237h-8.818l-0.24-0.239
		v-6.197l0.24-0.239h8.344l0.238-0.238v-0.713l-0.238-0.241h-8.344l-0.24-0.238v-5.958l0.24-0.239h8.818l0.24-0.237v-0.715
		l-0.24-0.238h-10.247l-0.241,0.238v16.207l0.241,0.24h10.247L518.085,763.603z"/>
	<path fill="#FFFFFF" d="M503.569,760.527v3.316h-10.767v-16.686h3.792v13.369H503.569z M492.802,747.158h3.792 M453.798,763.843
		c3.881,0,7.145-2.653,8.076-6.243l9.439,7.375l9.436-7.371v6.239h10.763v-3.316h-6.974v-13.369h-3.789v6.238l-9.051,7.07
		l-2.022-1.581l4.331-3.385l4.718-3.687l-2.694-2.104l-9.048,7.071l-2.025-1.581l9.05-7.071l-2.693-2.104l-9.439,7.376
		c-0.932-3.591-4.195-6.243-8.076-6.243h-6.766v16.686H453.798z M450.824,760.527v-10.053h2.975c2.513,0,4.552,2.25,4.552,5.026
		s-2.039,5.026-4.552,5.026H450.824z"/>
</g>
</svg>
