<svg xmlns="http://www.w3.org/2000/svg" viewBox="0 0 123.6 15.84"><defs><style>.a{fill:gray;}</style></defs><title>DellTech_Logo_Prm_Gry_rgb</title><path class="a" d="M569.3,68.33c0-1.48-.83-2.15-2.48-2.48s-2.65-.49-2.65-1.65c0-.83.66-1.32,1.82-1.32,1.49,0,2,.66,2,1.48l.16.17h.66l.17-.17c0-1.65-1.33-2.31-3-2.31-1.82,0-2.81,1-2.81,2.15,0,1.32,1,2,2.64,2.31s2.49.5,2.49,1.82c0,.83-.5,1.49-2.15,1.49C564.67,69.82,564,69,564,68l-.17-.16h-.66L563,68c0,1.49,1.16,2.65,3.15,2.65,2.15,0,3.14-1,3.14-2.32m-7.11-1.65.16-.17V66c0-2.32-1.32-4-3.64-4s-3.64,1.65-3.64,4v.33c0,2.32,1.16,4.3,3.81,4.3a3.05,3.05,0,0,0,3.31-2.48L562,68h-.66l-.17.17a2.2,2.2,0,0,1-2.31,1.65,2.88,2.88,0,0,1-2.82-3l.17-.17Zm-1-.83h-5l-.17-.16a2.65,2.65,0,1,1,5.3,0Zm-7.28,4.47V62.38l-.16-.17h-.66l-.17.17v7.94l.17.17h.66Zm0-9.6v-1l-.16-.16h-.66l-.17.16v1l.17.17h.66Zm-6.28,9.1c-1.66,0-2.65-1.15-2.65-3.47s1-3.47,2.65-3.47,2.64,1.15,2.64,3.47-1,3.47-2.64,3.47m2.64-.49c0,2.15-.49,3.8-2.48,3.8-1.49,0-2-.66-2.15-1.49l-.16-.16h-.67l-.16.16c.16,1.33,1.16,2.32,3.14,2.32,2.15,0,3.48-1.32,3.48-4.63V62.38l-.17-.17h-.5l-.16.17-.17,1h-.16a2.77,2.77,0,0,0-2.65-1.32c-2.31,0-3.47,1.82-3.47,4.3s1.16,4.3,3.47,4.3a2.77,2.77,0,0,0,2.65-1.32Zm-10.75-6.45c1.66,0,2.81,1.32,2.81,3.47s-1.15,3.47-2.81,3.47-2.81-1.32-2.81-3.47,1.16-3.47,2.81-3.47m0,7.77c2.15,0,3.81-1.49,3.81-4.3s-1.66-4.3-3.81-4.3-3.8,1.49-3.8,4.3,1.65,4.3,3.8,4.3m-5-.33V59.07l-.17-.17h-.66l-.17.17V70.32l.17.17h.66Zm-6-7.44c1.66,0,2.81,1.32,2.81,3.47s-1.15,3.47-2.81,3.47-2.81-1.32-2.81-3.47,1.16-3.47,2.81-3.47m0,7.77c2.15,0,3.81-1.49,3.81-4.3s-1.66-4.3-3.81-4.3-3.8,1.49-3.8,4.3,1.65,4.3,3.8,4.3m-4.8-.33v-5c0-2.15-1.15-3.31-3-3.31a3,3,0,0,0-2.65,1.32H518l-.16-1-.17-.17h-.49l-.17.17v7.94l.17.17h.66l.16-.17V65.85c0-1.82.83-3,2.65-3,1.32,0,2.15.82,2.15,2.48v5l.17.17h.66Zm-8.43,0v-5c0-2.15-1.16-3.31-3-3.31a3,3,0,0,0-2.65,1.32h-.16v-4.3l-.17-.17h-.66l-.17.17V70.32l.17.17h.66l.17-.17V65.85c0-1.82.83-3,2.64-3,1.33,0,2.15.82,2.15,2.48v5l.17.17h.66Zm-14.23-4c0-2.32,1.16-3.47,2.81-3.47a2.26,2.26,0,0,1,2.48,2l.17.17h.66l.17-.17A3.19,3.19,0,0,0,504,62.05c-2.15,0-3.8,1.32-3.8,4.3s1.65,4.3,3.8,4.3a3.19,3.19,0,0,0,3.48-2.81l-.17-.17h-.66l-.17.17a2.26,2.26,0,0,1-2.48,2c-1.65,0-2.81-1.15-2.81-3.47m-1.82.33.17-.17V66c0-2.32-1.33-4-3.64-4s-3.64,1.65-3.64,4v.33c0,2.32,1.15,4.3,3.8,4.3a3,3,0,0,0,3.31-2.48l-.17-.17h-.66l-.16.17A2.2,2.2,0,0,1,496,69.82a2.87,2.87,0,0,1-2.81-3l.16-.17Zm-1-.83h-5l-.16-.16a2.65,2.65,0,1,1,5.29,0Zm-4.46-6.28v-.5l-.17-.17h-8.6l-.16.17v.5l.16.16h3.64l.17.17V70.32l.16.17h.66l.17-.17V59.9l.16-.17h3.64Z" transform="translate(-445.7 -58.12)"/><path class="a" d="M484.94,68.18v2.31h-7.48V58.9h2.64v9.28Zm-34.55,2.31A5.81,5.81,0,0,0,456,66.15l6.55,5.12,6.55-5.11v4.33h7.47V68.18h-4.84V58.9H469.1v4.33l-6.28,4.91L461.41,67l3-2.34,3.27-2.56-1.86-1.46-6.29,4.9-1.4-1.09,6.28-4.91-1.87-1.46L456,63.24a5.81,5.81,0,0,0-5.61-4.34H445.7V70.49Zm-2.06-2.31v-7h2.06a3.5,3.5,0,0,1,0,7Z" transform="translate(-445.7 -58.12)"/></svg>