<?xml version="1.0" encoding="UTF-8" standalone="no"?>
<!-- Created with Inkscape (http://www.inkscape.org/) -->

<svg
   xmlns:dc="http://purl.org/dc/elements/1.1/"
   xmlns:cc="http://creativecommons.org/ns#"
   xmlns:rdf="http://www.w3.org/1999/02/22-rdf-syntax-ns#"
   xmlns:svg="http://www.w3.org/2000/svg"
   xmlns="http://www.w3.org/2000/svg"
   xmlns:sodipodi="http://sodipodi.sourceforge.net/DTD/sodipodi-0.dtd"
   xmlns:inkscape="http://www.inkscape.org/namespaces/inkscape"
   width="36.189461mm"
   height="6.3499999mm"
   viewBox="0 0 128.23037 22.5"
   id="svg2"
   version="1.1"
   inkscape:version="0.91 r13725"
   sodipodi:docname="DellEMC_Logo_Prm_Gry_4c_18px_A5.svg">
  <defs
     id="defs4">
    <clipPath
       id="clipPath3350"
       clipPathUnits="userSpaceOnUse">
      <path
         inkscape:connector-curvature="0"
         id="path3352"
         d="M 0,110 617,110 617,0 0,0 0,110 Z" />
    </clipPath>
  </defs>
  <sodipodi:namedview
     id="base"
     pagecolor="#ffffff"
     bordercolor="#666666"
     borderopacity="1.0"
     inkscape:pageopacity="0.0"
     inkscape:pageshadow="2"
     inkscape:zoom="0.35"
     inkscape:cx="-540.88481"
     inkscape:cy="465.5357"
     inkscape:document-units="px"
     inkscape:current-layer="layer1"
     showgrid="false"
     fit-margin-top="0"
     fit-margin-left="0"
     fit-margin-right="0"
     fit-margin-bottom="0"
     inkscape:window-width="1920"
     inkscape:window-height="1028"
     inkscape:window-x="-8"
     inkscape:window-y="-8"
     inkscape:window-maximized="1" />
  <metadata
     id="metadata7">
    <rdf:RDF>
      <cc:Work
         rdf:about="">
        <dc:format>image/svg+xml</dc:format>
        <dc:type
           rdf:resource="http://purl.org/dc/dcmitype/StillImage" />
        <dc:title></dc:title>
      </cc:Work>
    </rdf:RDF>
  </metadata>
  <g
     inkscape:label="Layer 1"
     inkscape:groupmode="layer"
     id="layer1"
     transform="translate(-915.88481,-975.3979)">
    <g
       transform="matrix(1.25,0,0,-1.25,595.31006,1055.3979)"
       inkscape:label="DellEMC_Logo_Prm_Gry_4c_18px_A5"
       id="g3344">
      <g
         id="g3346">
        <g
           clip-path="url(#clipPath3350)"
           id="g3348">
          <g
             transform="translate(323.9491,47.3023)"
             id="g3354">
            <path
               inkscape:connector-curvature="0"
               id="path3356"
               style="fill:#918f90;fill-opacity:1;fill-rule:nonzero;stroke:none"
               d="m 0,0 0,0.679 -0.227,0.227 -8.377,0 -0.227,0.226 0,5.887 0.227,0.226 7.924,0 0.227,0.227 0,0.679 -0.227,0.227 -7.924,0 -0.227,0.226 0,5.661 0.227,0.226 8.377,0 0.227,0.226 0,0.68 -0.227,0.226 -9.735,0 -0.227,-0.226 0,-15.397 0.227,-0.227 9.735,0 L 0,0 Z m 19.019,0 0,15.397 -0.226,0.226 -1.585,0 -0.226,-0.226 -5.888,-13.812 -0.226,0 -5.887,13.812 -0.227,0.226 -1.584,0 -0.228,-0.226 0,-15.397 0.228,-0.227 0.905,0 0.227,0.227 0,13.132 0.227,0 L 10.188,0 l 0.227,-0.227 1.132,0 0.227,0.227 5.66,13.132 0.226,0 0,-13.132 0.228,-0.227 0.905,0 L 19.019,0 Z m 9.963,-0.453 c 3.17,0 5.66,1.585 6.113,4.981 l -0.226,0.227 -0.905,0 -0.227,-0.227 C 33.284,2.039 31.699,0.679 28.982,0.679 c -3.396,0 -5.887,2.491 -5.887,7.019 0,4.529 2.491,7.019 5.887,7.019 2.717,0 4.302,-1.358 4.755,-3.622 l 0.227,-0.227 0.905,0 0.226,0.227 c -0.453,3.17 -2.943,4.754 -6.113,4.754 -3.849,0 -7.246,-2.717 -7.246,-8.151 0,-5.434 3.397,-8.151 7.246,-8.151" />
          </g>
          <g
             transform="translate(260.0598,50.225)"
             id="g3358">
            <path
               inkscape:connector-curvature="0"
               id="path3360"
               style="fill:#918f90;fill-opacity:1;fill-rule:nonzero;stroke:none"
               d="m 0,0 0,9.55 2.825,0 C 5.214,9.55 7.15,7.412 7.15,4.775 7.15,2.138 5.214,0 2.825,0 L 0,0 Z m 2.825,-3.15 c 3.688,0 6.788,2.519 7.672,5.931 l 8.967,-7.006 8.961,7.001 0,-5.926 10.225,0 0,3.15 -6.625,0 0,12.7 -3.6,0 0,-5.926 -8.596,-6.716 -1.922,1.502 4.115,3.215 4.481,3.501 -2.559,1.998 -8.595,-6.715 -1.923,1.502 8.596,6.715 -2.558,1.999 -8.967,-7.006 C 9.613,10.181 6.513,12.7 2.825,12.7 l -6.425,0 0,-15.85 6.425,0 z m 37.05,15.85 3.6,0 M 50.1,0 l 0,-3.15 -10.225,0 0,15.85 3.6,0 0,-12.7 6.625,0 z" />
          </g>
        </g>
      </g>
    </g>
  </g>
</svg>
