<?xml version="1.0" encoding="utf-8"?>
<svg
	version="1.1"
	id="Layer_1"
	xmlns="http://www.w3.org/2000/svg"
	xmlns:xlink="http://www.w3.org/1999/xlink"
	x="0px"
	y="0px"
	width="40px" 
	height="40px"
	viewBox="0 0 150 150"
	xml:space="preserve">
	<style type="text/css">
		.st0 {
		  fill: #ffffff;
		}
	</style>
	<path
		class="st0"
		d="M73.4,2.1c-39.5,0-71.5,32-71.5,71.5s32,71.5,71.5,71.5s71.5-32,71.5-71.5S112.9,2.1,73.4,2.1z M73.4,138
		c-35.5,0-64.3-28.8-64.3-64.4S37.9,9.3,73.4,9.3s64.3,28.8,64.3,64.3S109,138,73.4,138z M129.2,83.1v6.3h-20.3V57.9h7.1v25.2H129.2z
		M35.3,89.4c7.3,0,13.5-5,15.2-11.8l17.8,13.9l17.8-13.9v11.8h20.3v-6.3H93.3V57.9h-7.2v11.8L69.1,83l-3.8-3l8.2-6.4l8.9-7l-5.1-4
		L60.2,76.1l-3.8-3l17.1-13.3l-5.1-4L50.5,69.7c-1.8-6.8-7.9-11.8-15.2-11.8H22.5v31.5H35.3z M29.7,83.1v-19h5.6
		c4.7,0,8.6,4.2,8.6,9.5c0,5.2-3.8,9.5-8.6,9.5H29.7z"
	/>
</svg>